<svg xmlns="http://www.w3.org/2000/svg" viewBox="0 0 2172 724">
  <rect width="2172" height="724" fill="#1B4D3E"/>
  <g transform="translate(0 724) scale(1 -1)" fill="#F5F1E8" fill-rule="evenodd">
    <path d="M 401 264.5 L 395 264.5 L 393 265.5 L 390.5 269 L 390.5 338 L 391.5 339 L 391.5 471 L 392.5 472 L 392.5 511 L 385 512.5 L 384 513.5 L 381 513.5 L 380 514.5 L 376 514.5 L 375 515.5 L 371 515.5 L 370 516.5 L 365 516.5 L 364 517.5 L 360 517.5 L 359 518.5 L 354 518.5 L 353 519.5 L 338 520.5 L 337 521.5 L 320 521.5 L 319 522.5 L 315 522.5 L 314 521.5 L 301 521.5 L 300 520.5 L 293 520.5 L 292 519.5 L 288 519.5 L 287 518.5 L 280 517.5 L 279 516.5 L 274 515.5 L 271 513.5 L 269 513.5 L 255 505.5 L 243.5 495 L 235.5 482 L 234.5 476 L 233.5 475 L 233.5 461 L 237.5 451 L 247 441.5 L 250 439.5 L 252 439.5 L 255 437.5 L 258 437.5 L 259 436.5 L 271 436.5 L 279 439.5 L 287.5 447 L 290.5 457 L 292 458.5 L 294 458.5 L 296.5 454 L 296.5 448 L 295.5 447 L 294.5 442 L 292.5 439 L 283 430.5 L 272 426.5 L 258 426.5 L 257 427.5 L 254 427.5 L 250 429.5 L 248 429.5 L 238 435.5 L 227.5 447 L 222.5 457 L 221.5 463 L 220.5 464 L 220.5 468 L 219.5 469 L 219.5 480 L 220.5 481 L 220.5 485 L 221.5 486 L 221.5 489 L 222.5 490 L 224.5 498 L 234.5 514 L 246 525.5 L 254 531.5 L 273 541.5 L 275 541.5 L 288 546.5 L 291 546.5 L 296 548.5 L 300 548.5 L 301 549.5 L 307 549.5 L 308 550.5 L 314 550.5 L 315 551.5 L 345 551.5 L 346 550.5 L 365 549.5 L 366 548.5 L 371 548.5 L 372 547.5 L 386 545.5 L 387 544.5 L 391 544.5 L 392 543.5 L 395 543.5 L 400 541.5 L 404 541.5 L 405 540.5 L 420 537.5 L 421 536.5 L 424 536.5 L 425 535.5 L 428 535.5 L 433 533.5 L 437 533.5 L 438 532.5 L 441 532.5 L 446 530.5 L 450 530.5 L 451 529.5 L 455 529.5 L 460 527.5 L 464 527.5 L 465 526.5 L 470 526.5 L 471 525.5 L 475 525.5 L 476 524.5 L 483 524.5 L 484 523.5 L 507 523.5 L 508 524.5 L 512 524.5 L 513 525.5 L 520 526.5 L 526 529.5 L 531.5 535 L 534.5 543 L 530.5 551 L 527.5 553 L 530 556.5 L 536 553.5 L 543.5 545 L 544.5 538 L 545.5 537 L 545.5 531 L 544.5 530 L 543.5 524 L 539.5 517 L 532 509.5 L 519 502.5 L 517 502.5 L 510 499.5 L 507 499.5 L 506 498.5 L 501 498.5 L 500 497.5 L 473 496.5 L 472 497.5 L 463 497.5 L 462 498.5 L 455 498.5 L 454 499.5 L 449 499.5 L 448 500.5 L 436 501.5 L 435 502.5 L 431 502.5 L 430 503.5 L 426 503.5 L 425 504.5 L 421 504.5 L 420 505.5 L 416 505.5 L 415 506.5 L 407 507.5 L 406 508.5 L 404.5 507 L 404.5 269 L 401 264.5 Z M 290 188.5 L 273 188.5 L 272 189.5 L 268 189.5 L 263 191.5 L 260 191.5 L 248 197.5 L 234.5 210 L 227.5 222 L 227.5 224 L 224.5 231 L 224.5 239 L 223.5 240 L 223.5 244 L 224.5 245 L 225.5 255 L 231.5 268 L 234.5 272 L 245 281.5 L 253 285.5 L 260 286.5 L 261 287.5 L 273 287.5 L 274 286.5 L 277 286.5 L 283 283.5 L 288.5 278 L 290.5 273 L 290.5 270 L 288 266.5 L 281 274.5 L 274 277.5 L 267 278.5 L 266 277.5 L 259 276.5 L 251 271.5 L 244.5 264 L 241.5 258 L 240.5 252 L 239.5 251 L 239.5 236 L 240.5 235 L 241.5 229 L 245.5 221 L 255 210.5 L 265 204.5 L 271 203.5 L 272 202.5 L 286 202.5 L 287 203.5 L 290 203.5 L 293 205.5 L 295 205.5 L 300 208.5 L 309.5 218 L 313.5 224 L 320.5 241 L 321.5 248 L 322.5 249 L 322.5 254 L 323.5 255 L 323.5 264 L 324.5 265 L 324.5 342 L 323.5 343 L 323.5 347 L 322.5 348 L 321.5 353 L 319.5 356 L 313 362.5 L 306 364.5 L 305.5 366 L 310 368.5 L 317.5 375 L 321.5 381 L 323.5 389 L 324.5 390 L 324.5 395 L 325.5 396 L 325.5 439 L 326.5 440 L 326.5 446 L 327.5 447 L 327.5 452 L 329.5 456 L 330.5 462 L 337.5 476 L 342.5 483 L 356 495.5 L 370 502.5 L 377 503.5 L 378 504.5 L 385 504.5 L 385.5 503 L 380.5 498 L 373.5 485 L 373.5 483 L 371.5 479 L 371.5 476 L 370.5 475 L 370.5 471 L 369.5 470 L 368.5 455 L 367.5 454 L 367.5 289 L 366.5 288 L 366.5 271 L 365.5 270 L 365.5 264 L 364.5 263 L 364.5 259 L 362.5 255 L 362.5 252 L 361.5 251 L 360.5 246 L 352.5 230 L 348.5 224 L 332 206.5 L 322 199.5 L 308 192.5 L 298 190.5 L 297 189.5 L 291 189.5 L 290 188.5 Z M 470 202.5 L 469 202.5 L 465.5 207 L 462.5 215 L 462.5 218 L 461.5 219 L 461.5 234 L 460.5 235 L 460.5 238 L 461.5 239 L 460.5 244 L 461.5 245 L 461.5 399 L 462.5 400 L 462.5 454 L 461.5 455 L 461.5 461 L 457.5 470 L 453 474.5 L 447 477.5 L 446.5 480 L 449 482.5 L 454 482.5 L 455 481.5 L 465 481.5 L 466 480.5 L 478 480.5 L 479 479.5 L 516 480.5 L 517.5 479 L 517.5 477 L 509 472.5 L 504.5 467 L 504.5 465 L 502.5 462 L 502.5 459 L 501.5 458 L 501.5 444 L 500.5 443 L 500.5 381 L 501.5 380 L 501.5 374 L 502.5 373 L 502.5 371 L 509.5 363 L 502.5 356 L 500.5 351 L 500.5 261 L 501.5 260 L 502.5 255 L 505 252.5 L 509 250.5 L 514 249.5 L 514.5 247 L 513 245.5 L 510 245.5 L 507 243.5 L 505 243.5 L 503 241.5 L 494 236.5 L 488 230.5 L 487 230.5 L 477.5 219 L 475.5 214 L 473.5 212 L 473.5 210 L 470 202.5 Z M 415 419.5 L 412.5 421 L 412.5 423 L 414.5 427 L 427 438.5 L 433 441.5 L 435 441.5 L 439 443.5 L 442 443.5 L 443 444.5 L 451 444.5 L 453.5 442 L 451 438.5 L 441 437.5 L 429 432.5 L 421 425.5 L 420 425.5 L 415 419.5 Z M 435 418.5 L 433 418.5 L 430.5 421 L 433 424.5 L 435 424.5 L 436.5 423 L 436.5 420 L 435 418.5 Z M 449 418.5 L 447 418.5 L 445.5 420 L 445.5 423 L 447 424.5 L 449 424.5 L 451.5 422 L 449 418.5 Z M 420 405.5 L 416.5 408 L 416.5 410 L 420 412.5 L 422.5 410 L 422.5 408 L 420 405.5 Z M 435 404.5 L 431.5 406 L 431.5 409 L 433 410.5 L 435 410.5 L 437.5 408 L 435 404.5 Z M 449 404.5 L 445.5 407 L 445.5 409 L 447 410.5 L 449 410.5 L 451.5 408 L 449 404.5 Z M 421 391.5 L 418 391.5 L 416.5 393 L 416.5 396 L 418 397.5 L 421 397.5 L 422.5 396 L 422.5 393 L 421 391.5 Z M 435 391.5 L 433 391.5 L 431.5 393 L 431.5 396 L 433 397.5 L 435 397.5 L 437.5 395 L 435 391.5 Z M 448 390.5 L 445.5 392 L 445.5 396 L 448 397.5 L 450.5 396 L 450.5 392 L 448 390.5 Z M 420 378.5 L 416.5 380 L 416.5 383 L 418 384.5 L 420 384.5 L 422.5 382 L 420 378.5 Z M 434 377.5 L 431.5 380 L 431.5 382 L 435 384.5 L 437.5 382 L 437.5 380 L 434 377.5 Z M 449 377.5 L 447 377.5 L 445.5 379 L 445.5 382 L 448 383.5 L 451.5 381 L 449 377.5 Z M 421 364.5 L 418 364.5 L 415.5 368 L 416.5 370 L 419 371.5 L 422.5 369 L 422.5 366 L 421 364.5 Z M 434 363.5 L 432 364.5 L 430.5 367 L 430.5 368 L 434 370.5 L 436.5 369 L 436.5 366 L 434 363.5 Z M 448 363.5 L 444.5 366 L 444.5 368 L 447 370.5 L 450 369.5 L 451.5 367 L 450.5 365 L 448 363.5 Z M 421 350.5 L 418 350.5 L 416.5 352 L 417 355.5 L 420 356.5 L 422.5 354 L 421 350.5 Z M 435 350.5 L 432 350.5 L 430.5 352 L 430.5 354 L 433 356.5 L 436.5 355 L 436.5 352 L 435 350.5 Z M 449 350.5 L 446 350.5 L 444.5 353 L 447 356.5 L 450.5 354 L 450.5 352 L 449 350.5 Z M 421 337.5 L 418 337.5 L 416.5 339 L 416.5 341 L 420 343.5 L 422.5 340 L 421 337.5 Z M 435 336.5 L 433 336.5 L 430.5 339 L 433 342.5 L 435 342.5 L 436.5 341 L 436.5 338 L 435 336.5 Z M 449 336.5 L 447 336.5 L 444.5 339 L 447 342.5 L 449 342.5 L 450.5 341 L 450.5 338 L 449 336.5 Z M 421 324.5 L 418 324.5 L 416.5 326 L 416.5 328 L 419 330.5 L 420 330.5 L 422.5 327 L 421 324.5 Z M 435 321.5 L 433 321.5 L 430.5 323 L 430.5 326 L 433 328.5 L 436.5 326 L 436.5 323 L 435 321.5 Z M 449 323.5 L 446 323.5 L 444.5 325 L 447 328.5 L 449 328.5 L 450.5 327 L 450.5 325 L 449 323.5 Z M 451 289.5 L 443 289.5 L 442 290.5 L 439 290.5 L 436 292.5 L 432 293.5 L 425 298.5 L 416.5 308 L 412.5 316 L 412.5 319 L 414 320.5 L 417.5 317 L 417.5 316 L 433 301.5 L 436 300.5 L 440 297.5 L 451 294.5 L 452.5 293 L 451 289.5 Z M 448 308.5 L 446 308.5 L 443.5 311 L 443.5 313 L 446 315.5 L 448 315.5 L 450.5 313 L 450.5 311 L 448 308.5 Z"/>
    <g transform="translate(-20 0)">
      <path d="M 642 202.5 L 576.5 203 L 576.5 208 L 579 209.5 L 585 210.5 L 588.5 213 L 590.5 217 L 590.5 359 L 588.5 364 L 585 367.5 L 577 369.5 L 575.5 371 L 575.5 375 L 577 376.5 L 626 376.5 L 626.5 360 L 628 359.5 L 628.5 361 L 637 369.5 L 647 375.5 L 649 375.5 L 653 377.5 L 656 377.5 L 657 378.5 L 672 378.5 L 673 377.5 L 677 377.5 L 689 372.5 L 697.5 366 L 706.5 355 L 712.5 342 L 712.5 339 L 714.5 335 L 714.5 330 L 715.5 329 L 715.5 321 L 716.5 320 L 716.5 308 L 715.5 307 L 715.5 300 L 714.5 299 L 713.5 291 L 712.5 290 L 710.5 282 L 706.5 274 L 702.5 268 L 691 256.5 L 675 248.5 L 665 247.5 L 664 246.5 L 654 246.5 L 653 247.5 L 648 247.5 L 644 249.5 L 642 249.5 L 636 252.5 L 628 259.5 L 627.5 259 L 627.5 215 L 633 210.5 L 642 208.5 L 642 202.5 Z M 812 246.5 L 793 246.5 L 792 247.5 L 787 247.5 L 786 248.5 L 783 248.5 L 782 249.5 L 777 250.5 L 774 252.5 L 772 252.5 L 763 257.5 L 750.5 269 L 745.5 276 L 740.5 286 L 738.5 296 L 737.5 297 L 737.5 302 L 736.5 303 L 736.5 321 L 737.5 322 L 737.5 327 L 738.5 328 L 740.5 338 L 746.5 350 L 749.5 353 L 749.5 354 L 765 368.5 L 780 375.5 L 787 376.5 L 788 377.5 L 792 377.5 L 793 378.5 L 811 378.5 L 812 377.5 L 822 376.5 L 837 370.5 L 847 363.5 L 853.5 357 L 858.5 350 L 864.5 338 L 866.5 328 L 867.5 327 L 867.5 322 L 868.5 321 L 868.5 304 L 867.5 303 L 867.5 298 L 866.5 297 L 865.5 290 L 860.5 278 L 854.5 269 L 846 260.5 L 839 255.5 L 826 249.5 L 823 249.5 L 818 247.5 L 813 247.5 L 812 246.5 Z M 957 246.5 L 944 246.5 L 943 247.5 L 937 247.5 L 932 249.5 L 929 249.5 L 918 254.5 L 912 258.5 L 900.5 270 L 893.5 282 L 893.5 284 L 891.5 287 L 890.5 293 L 889.5 294 L 889.5 298 L 888.5 299 L 888.5 307 L 887.5 308 L 887.5 316 L 888.5 317 L 889.5 330 L 890.5 331 L 892.5 339 L 897.5 349 L 902.5 356 L 911 364.5 L 920 370.5 L 935 376.5 L 944 377.5 L 945 378.5 L 964 378.5 L 965 377.5 L 971 377.5 L 972 376.5 L 980 375.5 L 987 372.5 L 992 371.5 L 996.5 369 L 996.5 361 L 997.5 360 L 996.5 359 L 996 336.5 L 983 336.5 L 982.5 340 L 981.5 341 L 980.5 350 L 976.5 359 L 969 365.5 L 963 366.5 L 962 367.5 L 952 366.5 L 944 362.5 L 940 359.5 L 935.5 354 L 930.5 344 L 930.5 342 L 928.5 338 L 928.5 335 L 927.5 334 L 927.5 329 L 926.5 328 L 926.5 317 L 925.5 316 L 927.5 295 L 928.5 294 L 930.5 286 L 934.5 278 L 943 269.5 L 950 265.5 L 957 264.5 L 958 263.5 L 966 263.5 L 967 264.5 L 971 264.5 L 980 268.5 L 988.5 277 L 991.5 284 L 993 285.5 L 994 284.5 L 997.5 284 L 997.5 273 L 998.5 272 L 996.5 268 L 988 258.5 L 979 252.5 L 977 252.5 L 974 250.5 L 972 250.5 L 968 248.5 L 965 248.5 L 964 247.5 L 958 247.5 L 957 246.5 Z M 1219 246.5 L 1204 246.5 L 1203 247.5 L 1193 248.5 L 1192 249.5 L 1187 250.5 L 1184 252.5 L 1182 252.5 L 1172 258.5 L 1162.5 267 L 1162.5 268 L 1156.5 275 L 1151.5 285 L 1151.5 287 L 1149.5 291 L 1149.5 294 L 1148.5 295 L 1148.5 299 L 1147.5 300 L 1147.5 323 L 1148.5 324 L 1148.5 329 L 1149.5 330 L 1149.5 333 L 1150.5 334 L 1151.5 339 L 1160.5 355 L 1169 363.5 L 1176 368.5 L 1187 373.5 L 1189 373.5 L 1193 375.5 L 1196 375.5 L 1197 376.5 L 1202 376.5 L 1203 377.5 L 1221 377.5 L 1222 376.5 L 1231 375.5 L 1232 374.5 L 1237 373.5 L 1240 371.5 L 1242 371.5 L 1253 364.5 L 1262.5 355 L 1268.5 346 L 1270.5 342 L 1270.5 340 L 1272.5 337 L 1272.5 334 L 1274.5 330 L 1274.5 326 L 1275.5 325 L 1275.5 319 L 1276.5 318 L 1276.5 307 L 1275.5 306 L 1275.5 298 L 1274.5 297 L 1274.5 293 L 1273.5 292 L 1271.5 284 L 1263.5 270 L 1252 258.5 L 1246 255.5 L 1244 253.5 L 1231 248.5 L 1228 248.5 L 1227 247.5 L 1220 247.5 L 1219 246.5 Z M 1535 247.5 L 1526 247.5 L 1525 248.5 L 1521 248.5 L 1520 249.5 L 1515 250.5 L 1508 254.5 L 1501.5 261 L 1496.5 272 L 1496.5 290 L 1497.5 291 L 1497.5 294 L 1501.5 302 L 1510 310.5 L 1523 317.5 L 1525 317.5 L 1532 320.5 L 1536 320.5 L 1537 321.5 L 1541 321.5 L 1542 322.5 L 1546 322.5 L 1547 323.5 L 1551 323.5 L 1552 324.5 L 1564 325.5 L 1564.5 348 L 1560.5 358 L 1557 361.5 L 1550 364.5 L 1538 364.5 L 1532 361.5 L 1528.5 358 L 1525.5 352 L 1525.5 349 L 1523.5 345 L 1523.5 340 L 1522 337.5 L 1508 337.5 L 1506.5 340 L 1507.5 363 L 1510 365.5 L 1520 370.5 L 1528 372.5 L 1529 373.5 L 1532 373.5 L 1533 374.5 L 1537 374.5 L 1538 375.5 L 1563 375.5 L 1564 374.5 L 1572 373.5 L 1583 368.5 L 1586 365.5 L 1587 365.5 L 1593.5 358 L 1597.5 348 L 1597.5 342 L 1598.5 341 L 1598.5 264 L 1601 260.5 L 1605 258.5 L 1609 258.5 L 1610.5 256 L 1610.5 253 L 1604 250.5 L 1593 249.5 L 1592 248.5 L 1579 248.5 L 1578 249.5 L 1575 249.5 L 1568.5 255 L 1566.5 259 L 1566.5 262 L 1565 265.5 L 1563.5 263 L 1554 254.5 L 1544 249.5 L 1542 249.5 L 1541 248.5 L 1536 248.5 L 1535 247.5 Z M 1835 247.5 L 1816 247.5 L 1815 248.5 L 1811 248.5 L 1810 249.5 L 1807 249.5 L 1801 252.5 L 1799 252.5 L 1790 257.5 L 1775.5 273 L 1770.5 283 L 1769.5 288 L 1767.5 292 L 1767.5 295 L 1766.5 296 L 1766.5 304 L 1765.5 305 L 1766.5 326 L 1767.5 327 L 1767.5 330 L 1768.5 331 L 1768.5 334 L 1769.5 335 L 1770.5 340 L 1774.5 348 L 1778.5 354 L 1789 364.5 L 1803 372.5 L 1809 373.5 L 1813 375.5 L 1835 375.5 L 1836 374.5 L 1843 373.5 L 1853 368.5 L 1865.5 357 L 1869.5 351 L 1874.5 338 L 1874.5 335 L 1875.5 334 L 1875.5 327 L 1876.5 326 L 1876 311.5 L 1801.5 311 L 1801.5 301 L 1802.5 300 L 1802.5 296 L 1803.5 295 L 1804.5 289 L 1806.5 286 L 1806.5 284 L 1812 276.5 L 1817 271.5 L 1820 270.5 L 1822 268.5 L 1827 267.5 L 1828 266.5 L 1832 266.5 L 1833 265.5 L 1842 265.5 L 1843 266.5 L 1850 267.5 L 1858 271.5 L 1868 281.5 L 1870 281.5 L 1873.5 278 L 1873.5 275 L 1869.5 268 L 1859 257.5 L 1849 251.5 L 1847 251.5 L 1840 248.5 L 1836 248.5 L 1835 247.5 Z M 1104 249.5 L 1103 250.5 L 1043.5 251 L 1043.5 255 L 1045 256.5 L 1048 256.5 L 1053 258.5 L 1056.5 263 L 1056.5 361 L 1041 361.5 L 1034 358.5 L 1027.5 351 L 1023.5 339 L 1016 338.5 L 1016 373.5 L 1132.5 373 L 1132 338.5 L 1124.5 339 L 1124.5 342 L 1121.5 348 L 1121.5 350 L 1118.5 355 L 1115 358.5 L 1108 361.5 L 1091.5 361 L 1091.5 265 L 1092.5 264 L 1092.5 262 L 1096 258.5 L 1101 256.5 L 1104 256.5 L 1105.5 255 L 1105.5 251 L 1104 249.5 Z M 1425 249.5 L 1424.5 256 L 1432 258.5 L 1433.5 260 L 1435.5 265 L 1435.5 359 L 1434 360.5 L 1433 359.5 L 1431 359.5 L 1430 360.5 L 1403 360.5 L 1402 359.5 L 1396.5 359 L 1396.5 263 L 1401 257.5 L 1406 256.5 L 1407.5 255 L 1407.5 251 L 1352 250.5 L 1351.5 256 L 1355 256.5 L 1359 258.5 L 1361.5 261 L 1361.5 263 L 1362.5 264 L 1362.5 360 L 1358 365.5 L 1353 366.5 L 1351.5 368 L 1352 373.5 L 1471 373.5 L 1472 372.5 L 1480.5 372 L 1480.5 367 L 1472 364.5 L 1470.5 363 L 1468.5 358 L 1468.5 355 L 1469.5 354 L 1469.5 347 L 1468.5 346 L 1468.5 340 L 1469.5 339 L 1469.5 328 L 1468.5 327 L 1468.5 323 L 1469.5 322 L 1469.5 262 L 1473 258.5 L 1477 256.5 L 1480 256.5 L 1480.5 251 L 1426 250.5 L 1425 249.5 Z M 1753 221.5 L 1747 221.5 L 1745.5 223 L 1744.5 228 L 1740.5 236 L 1732 245.5 L 1723 249.5 L 1718 249.5 L 1717 250.5 L 1659 250.5 L 1658 249.5 L 1653 249.5 L 1646 246.5 L 1638.5 239 L 1634.5 232 L 1634.5 230 L 1632.5 227 L 1631 221.5 L 1623.5 222 L 1623.5 263 L 1634 263.5 L 1635 264.5 L 1637 264.5 L 1643.5 271 L 1644.5 274 L 1647.5 278 L 1648.5 283 L 1652.5 293 L 1653.5 302 L 1654.5 303 L 1654.5 308 L 1655.5 309 L 1656.5 331 L 1657.5 332 L 1657.5 357 L 1655.5 362 L 1654 363.5 L 1644.5 367 L 1644.5 371 L 1646 372.5 L 1748.5 372 L 1748.5 367 L 1741 364.5 L 1737.5 360 L 1737.5 264 L 1753 263.5 L 1754.5 262 L 1754.5 225 L 1753.5 224 L 1754.5 223 L 1753 221.5 Z M 1908 248.5 L 1897 248.5 L 1891 251.5 L 1888.5 254 L 1886.5 258 L 1885.5 264 L 1886.5 265 L 1886.5 270 L 1887.5 272 L 1893 276.5 L 1898 276.5 L 1900 275.5 L 1906 269.5 L 1910 270.5 L 1913.5 274 L 1918.5 286 L 1918.5 289 L 1920.5 294 L 1920.5 298 L 1921.5 299 L 1922.5 313 L 1923.5 314 L 1923.5 325 L 1924.5 326 L 1924.5 359 L 1921 363.5 L 1917 365.5 L 1914 365.5 L 1912.5 367 L 1912.5 372 L 2011 372.5 L 2012.5 371 L 2011.5 370 L 2012.5 368 L 2011 366.5 L 2009 366.5 L 2005 364.5 L 2001.5 361 L 2001.5 359 L 2000.5 358 L 2000.5 265 L 2002.5 260 L 2004 258.5 L 2011 256.5 L 2012.5 255 L 2012.5 251 L 1955.5 251 L 1955.5 255 L 1957 256.5 L 1960 256.5 L 1964 258.5 L 1966.5 261 L 1966.5 263 L 1967.5 264 L 1967.5 359 L 1938 359.5 L 1937.5 357 L 1938.5 356 L 1938.5 348 L 1937.5 347 L 1937.5 323 L 1936.5 322 L 1936.5 313 L 1935.5 312 L 1934.5 297 L 1933.5 296 L 1933.5 291 L 1932.5 290 L 1932.5 286 L 1931.5 285 L 1930.5 278 L 1929.5 277 L 1927.5 269 L 1921.5 258 L 1916 252.5 L 1908 248.5 Z M 805.5 258 L 812 259.5 L 818.5 265 L 821.5 269 L 826.5 280 L 826.5 283 L 828.5 288 L 828.5 293 L 829.5 294 L 829.5 301 L 830.5 302 L 830.5 321 L 829.5 322 L 829.5 331 L 828.5 332 L 828.5 337 L 827.5 338 L 826.5 345 L 820.5 358 L 812 365.5 L 806 366.5 L 805 367.5 L 800 367.5 L 799 366.5 L 796 366.5 L 789 362.5 L 783.5 356 L 780.5 350 L 780.5 348 L 777.5 341 L 777.5 338 L 776.5 337 L 776.5 332 L 775.5 331 L 775.5 323 L 774.5 322 L 774.5 303 L 775.5 302 L 775.5 293 L 776.5 292 L 777.5 283 L 778.5 282 L 779.5 277 L 785.5 266 L 793 259.5 L 799 258.5 L 800 257.5 L 805.5 258 Z M 1214.5 258 L 1219 258.5 L 1223 260.5 L 1228.5 266 L 1234.5 277 L 1235.5 283 L 1236.5 284 L 1236.5 288 L 1237.5 289 L 1237.5 294 L 1238.5 295 L 1238.5 308 L 1239.5 309 L 1238.5 311 L 1238.5 329 L 1237.5 330 L 1237.5 335 L 1236.5 336 L 1236.5 340 L 1235.5 341 L 1234.5 347 L 1228.5 359 L 1225 362.5 L 1218 366.5 L 1207 366.5 L 1202 364.5 L 1195.5 359 L 1191.5 353 L 1191.5 351 L 1189.5 348 L 1187.5 338 L 1186.5 337 L 1186.5 332 L 1185.5 331 L 1184.5 305 L 1185.5 304 L 1185.5 294 L 1186.5 293 L 1187.5 283 L 1194.5 267 L 1201 260.5 L 1205 258.5 L 1209 258.5 L 1210 257.5 L 1214.5 258 Z M 1802.5 324 L 1843.5 325 L 1842.5 326 L 1842.5 342 L 1841.5 343 L 1840.5 351 L 1837.5 358 L 1832 363.5 L 1827 365.5 L 1820 365.5 L 1814 362.5 L 1809.5 358 L 1806.5 353 L 1806.5 351 L 1804.5 348 L 1803.5 342 L 1802.5 341 L 1802.5 335 L 1801.5 334 L 1801.5 324 L 1802.5 324 Z M 654.5 263 L 657 263.5 L 662 266.5 L 666.5 271 L 672.5 281 L 672.5 283 L 674.5 287 L 674.5 290 L 675.5 291 L 675.5 296 L 676.5 297 L 676.5 304 L 677.5 305 L 677.5 319 L 676.5 320 L 675.5 334 L 674.5 335 L 672.5 343 L 668.5 350 L 663 355.5 L 655 359.5 L 644 359.5 L 635 355.5 L 627.5 347 L 627.5 276 L 630.5 271 L 636 265.5 L 640 263.5 L 642 263.5 L 643 262.5 L 654.5 263 Z M 1702.5 264 L 1703.5 265 L 1703.5 274 L 1702.5 275 L 1702.5 310 L 1703.5 311 L 1703.5 320 L 1702.5 321 L 1702.5 330 L 1703.5 331 L 1703.5 340 L 1702.5 341 L 1702.5 344 L 1703.5 345 L 1702.5 346 L 1702.5 358 L 1703.5 359 L 1671 359.5 L 1670.5 326 L 1669.5 325 L 1669.5 313 L 1668.5 312 L 1667.5 299 L 1666.5 298 L 1666.5 294 L 1665.5 293 L 1664.5 286 L 1661.5 279 L 1661.5 277 L 1654.5 264 L 1702.5 264 Z M 1551.5 266 L 1554 266.5 L 1559 269.5 L 1564.5 276 L 1564 315.5 L 1554 313.5 L 1544 309.5 L 1536.5 304 L 1531.5 297 L 1531.5 295 L 1530.5 294 L 1529.5 283 L 1530.5 282 L 1530.5 277 L 1534.5 270 L 1542 265.5 L 1551.5 266 Z"/>
      <g fill="none" stroke="#F5F1E8" stroke-width="7" stroke-linecap="round">
        <path d="M 790 275 C 773 295 773 330 790 350"/>
        <path d="M 815 275 C 832 295 832 330 815 350"/>
      </g>
    </g>
  </g>
  <path d="M 899.58 559.866 C 898.942 559.946 898.4 560.026 897.953 560.106 C 897.506 560.186 897.004 560.297 896.446 560.441 C 895.792 560.617 895.373 560.928 895.19 561.375 C 895.006 561.822 894.914 562.332 894.914 562.907 L 894.914 581.63 C 894.914 583.354 894.568 584.935 893.874 586.371 C 893.18 587.808 892.227 589.013 891.015 589.987 C 889.786 590.944 888.415 591.667 886.899 592.153 C 885.384 592.64 883.765 592.884 882.042 592.884 C 879.06 592.884 876.655 592.166 874.829 590.731 C 873.002 589.295 872.089 587.325 872.089 584.821 C 872.089 583.337 872.508 582.109 873.345 581.136 C 874.183 580.163 875.335 579.677 876.803 579.677 C 878.19 579.677 879.295 580.084 880.116 580.897 C 880.938 581.71 881.349 582.715 881.349 583.912 C 881.349 584.932 880.994 585.878 880.284 586.747 C 879.574 587.616 878.765 588.418 877.855 589.151 L 877.855 589.462 C 877.999 589.781 878.311 590.053 878.791 590.276 C 879.271 590.499 879.759 590.611 880.255 590.611 C 882.174 590.611 883.682 589.924 884.777 588.552 C 885.873 587.179 886.421 585.104 886.421 582.326 L 886.421 563.147 C 886.421 562.572 886.333 562.093 886.156 561.71 C 885.98 561.327 885.555 560.992 884.882 560.704 C 884.401 560.497 883.82 560.321 883.139 560.177 C 882.458 560.034 881.893 559.93 881.444 559.866 L 881.444 558 L 899.58 558 Z M 947.962 559.866 C 947.499 559.914 946.833 560.022 945.964 560.189 C 945.095 560.357 944.365 560.648 943.775 561.063 C 943.169 561.461 942.742 562.179 942.495 563.216 C 942.248 564.253 942.124 565.808 942.124 567.881 L 942.124 580.514 C 942.124 584.231 940.864 587.221 938.344 589.486 C 935.823 591.751 932.49 592.884 928.343 592.884 C 923.51 592.884 919.769 591.791 917.122 589.606 C 914.474 587.421 913.15 584.374 913.15 580.466 L 913.15 563.096 C 913.15 562.538 913.042 562.059 912.827 561.661 C 912.612 561.262 912.201 560.903 911.595 560.584 C 911.18 560.377 910.669 560.209 910.063 560.082 C 909.457 559.954 908.963 559.866 908.58 559.818 L 908.58 558 L 926.381 558 L 926.381 559.818 C 925.87 559.85 925.352 559.91 924.826 559.998 C 924.299 560.086 923.765 560.217 923.223 560.393 C 922.616 560.584 922.21 560.903 922.002 561.35 C 921.795 561.796 921.691 562.299 921.691 562.857 L 921.691 579.988 C 921.691 583.353 922.432 585.802 923.913 587.333 C 925.395 588.864 927.545 589.63 930.364 589.63 C 933.136 589.63 935.31 588.785 936.887 587.094 C 938.464 585.403 939.253 582.915 939.253 579.629 L 939.253 568.121 C 939.253 566.079 939.113 564.552 938.834 563.539 C 938.555 562.526 938.128 561.796 937.554 561.35 C 937.139 560.999 936.418 560.68 935.389 560.393 C 934.36 560.106 933.638 559.93 933.224 559.866 L 933.224 558 L 947.962 558 Z M 971.317 593.817 C 969.244 593.817 967.31 593.558 965.515 593.039 C 963.721 592.521 962.202 591.911 960.957 591.209 L 959.307 592.884 L 957.273 592.884 L 956.962 580.61 L 959.019 580.61 C 959.482 581.777 960.072 583.008 960.79 584.302 C 961.508 585.597 962.337 586.756 963.278 587.78 C 964.251 588.851 965.34 589.722 966.544 590.393 C 967.748 591.065 969.156 591.4 970.767 591.4 C 972.936 591.4 974.599 590.87 975.756 589.808 C 976.912 588.746 977.49 587.409 977.49 585.797 C 977.49 584.472 977 583.359 976.019 582.457 C 975.038 581.555 973.518 580.775 971.461 580.118 C 970.121 579.686 968.889 579.285 967.764 578.917 C 966.64 578.548 965.583 578.172 964.594 577.787 C 962.313 576.877 960.618 575.575 959.51 573.883 C 958.401 572.19 957.847 570.297 957.847 568.205 C 957.847 566.88 958.134 565.606 958.708 564.384 C 959.283 563.162 960.12 562.064 961.221 561.09 C 962.273 560.18 963.621 559.437 965.264 558.862 C 966.907 558.288 968.693 558 970.623 558 C 972.506 558 974.268 558.263 975.911 558.79 C 977.554 559.316 978.846 559.842 979.787 560.369 L 981.247 558.933 L 983.328 558.933 L 983.519 570.513 L 981.462 570.513 C 980.983 569.266 980.421 567.991 979.775 566.688 C 979.129 565.385 978.447 564.302 977.729 563.438 C 976.948 562.511 976.047 561.771 975.026 561.22 C 974.005 560.668 972.809 560.393 971.437 560.393 C 969.714 560.393 968.307 560.88 967.214 561.854 C 966.121 562.829 965.575 564.035 965.575 565.473 C 965.575 566.831 966.05 567.942 966.999 568.804 C 967.948 569.667 969.427 570.426 971.437 571.081 C 972.617 571.48 973.822 571.88 975.05 572.279 C 976.278 572.678 977.37 573.061 978.328 573.429 C 980.64 574.323 982.399 575.557 983.603 577.13 C 984.807 578.704 985.41 580.656 985.41 582.988 C 985.41 584.457 985.067 585.879 984.381 587.252 C 983.695 588.626 982.77 589.768 981.605 590.679 C 980.329 591.685 978.854 592.459 977.179 593.002 C 975.504 593.545 973.55 593.817 971.317 593.817 Z M 1027.307 567.714 L 1025.441 567.714 C 1024.948 566.262 1024.156 564.707 1023.066 563.048 C 1021.976 561.39 1020.969 560.496 1020.046 560.369 C 1019.537 560.305 1018.909 560.249 1018.161 560.201 C 1017.413 560.153 1016.768 560.129 1016.227 560.129 L 1015.105 560.129 L 1015.105 586.759 C 1015.105 587.333 1015.209 587.839 1015.416 588.278 C 1015.624 588.717 1016.03 589.064 1016.637 589.319 C 1017.003 589.462 1017.574 589.61 1018.347 589.762 C 1019.121 589.913 1019.779 590.021 1020.321 590.085 L 1020.321 591.951 L 1001.396 591.951 L 1001.396 590.085 C 1001.858 590.037 1002.508 589.969 1003.346 589.881 C 1004.183 589.793 1004.753 589.686 1005.057 589.558 C 1005.679 589.303 1006.093 588.96 1006.301 588.529 C 1006.508 588.099 1006.612 587.588 1006.612 586.998 L 1006.612 560.129 L 1005.49 560.129 C 1004.949 560.129 1004.304 560.153 1003.556 560.201 C 1002.808 560.249 1002.18 560.305 1001.671 560.369 C 1000.747 560.496 999.741 561.39 998.651 563.048 C 997.561 564.707 996.769 566.262 996.276 567.714 L 994.41 567.714 L 994.41 558 L 1027.307 558 Z M 1104.079 566.494 C 1104.079 568.408 1103.684 570.055 1102.894 571.434 C 1102.105 572.814 1101.016 573.935 1099.629 574.796 C 1098.193 575.689 1096.554 576.335 1094.712 576.734 C 1092.87 577.133 1090.8 577.332 1088.503 577.332 L 1085.728 577.332 L 1085.728 586.878 C 1085.728 587.453 1085.835 587.951 1086.051 588.374 C 1086.266 588.796 1086.677 589.135 1087.283 589.391 C 1087.602 589.518 1088.12 589.654 1088.838 589.797 C 1089.556 589.941 1090.162 590.037 1090.656 590.085 L 1090.656 591.951 L 1072.257 591.951 L 1072.257 590.085 C 1072.72 590.037 1073.334 589.969 1074.1 589.881 C 1074.865 589.793 1075.4 589.686 1075.703 589.558 C 1076.325 589.303 1076.736 588.992 1076.935 588.625 C 1077.134 588.258 1077.234 587.748 1077.234 587.094 L 1077.234 563.144 C 1077.234 562.586 1077.138 562.103 1076.947 561.697 C 1076.755 561.29 1076.341 560.951 1075.703 560.68 C 1075.256 560.488 1074.662 560.317 1073.92 560.165 C 1073.179 560.014 1072.624 559.914 1072.257 559.866 L 1072.257 558 L 1090.991 558 C 1095.378 558 1098.656 558.698 1100.825 560.094 C 1102.994 561.489 1104.079 563.623 1104.079 566.494 Z M 1094.748 567.714 C 1094.748 565.162 1094.233 563.268 1093.204 562.032 C 1092.176 560.795 1090.345 560.177 1087.714 560.177 L 1085.728 560.177 L 1085.728 575.083 L 1086.733 575.083 C 1089.348 575.083 1091.338 574.481 1092.702 573.277 C 1094.066 572.072 1094.748 570.218 1094.748 567.714 Z M 1152.915 592.429 L 1134.421 592.429 L 1134.421 590.563 C 1135.28 590.499 1136.291 590.344 1137.453 590.096 C 1138.615 589.849 1139.196 589.542 1139.196 589.175 C 1139.196 589.048 1139.184 588.904 1139.16 588.745 C 1139.136 588.585 1139.069 588.37 1138.957 588.099 L 1136.06 581.065 L 1124.34 581.065 C 1124.07 581.718 1123.773 582.484 1123.448 583.361 C 1123.123 584.239 1122.841 585.02 1122.603 585.706 C 1122.302 586.599 1122.123 587.245 1122.067 587.644 C 1122.011 588.043 1121.984 588.322 1121.984 588.481 C 1121.984 588.992 1122.37 589.427 1123.143 589.785 C 1123.916 590.144 1125.203 590.403 1127.004 590.563 L 1127.004 592.429 L 1113.079 592.429 L 1113.079 590.563 C 1113.605 590.531 1114.199 590.447 1114.861 590.312 C 1115.523 590.176 1116.046 589.989 1116.428 589.75 C 1117.082 589.367 1117.637 588.896 1118.091 588.338 C 1118.546 587.78 1118.925 587.118 1119.228 586.352 C 1121.078 581.87 1122.932 577.38 1124.79 572.882 C 1126.649 568.384 1128.702 563.423 1130.951 558 L 1135.736 558 C 1138.863 565.688 1141.311 571.765 1143.082 576.231 C 1144.852 580.698 1146.359 584.398 1147.604 587.333 C 1147.811 587.812 1148.074 588.246 1148.393 588.637 C 1148.712 589.028 1149.167 589.399 1149.757 589.75 C 1150.204 590.005 1150.722 590.196 1151.312 590.324 C 1151.902 590.451 1152.437 590.531 1152.915 590.563 Z M 1135.075 578.696 L 1130.162 566.424 L 1125.319 578.696 Z M 1192.54 561.493 C 1194.614 562.849 1196.289 564.655 1197.565 566.912 C 1198.841 569.169 1199.479 571.933 1199.479 575.203 C 1199.479 578.074 1198.908 580.574 1197.768 582.703 C 1196.627 584.833 1195.116 586.575 1193.234 587.931 C 1191.32 589.287 1189.147 590.296 1186.714 590.958 C 1184.282 591.62 1181.734 591.951 1179.07 591.951 L 1161.963 591.951 L 1161.963 590.085 C 1162.473 590.069 1163.111 590.021 1163.877 589.941 C 1164.643 589.861 1165.153 589.765 1165.408 589.654 C 1165.983 589.415 1166.381 589.092 1166.605 588.685 C 1166.828 588.278 1166.94 587.788 1166.94 587.213 L 1166.94 563.144 C 1166.94 562.602 1166.836 562.111 1166.629 561.673 C 1166.421 561.234 1166.014 560.879 1165.408 560.608 C 1164.802 560.337 1164.16 560.153 1163.482 560.058 C 1162.804 559.962 1162.282 559.898 1161.915 559.866 L 1161.915 558 L 1179.979 558 C 1181.909 558 1183.975 558.247 1186.176 558.742 C 1188.377 559.236 1190.499 560.153 1192.54 561.493 Z M 1187.659 585.826 C 1188.441 584.55 1189.011 583.03 1189.37 581.268 C 1189.729 579.505 1189.908 577.476 1189.908 575.179 C 1189.908 572.93 1189.669 570.88 1189.191 569.03 C 1188.712 567.18 1188.01 565.6 1187.085 564.293 C 1186.16 562.985 1185.008 561.972 1183.628 561.254 C 1182.248 560.536 1180.681 560.177 1178.926 560.177 C 1178.368 560.177 1177.734 560.189 1177.024 560.213 C 1176.314 560.237 1175.784 560.257 1175.433 560.273 L 1175.433 586.041 C 1175.433 586.615 1175.509 587.122 1175.661 587.56 C 1175.812 587.999 1176.071 588.386 1176.438 588.721 C 1176.805 589.056 1177.256 589.315 1177.79 589.498 C 1178.324 589.682 1179.022 589.773 1179.883 589.773 C 1181.686 589.773 1183.233 589.439 1184.525 588.769 C 1185.817 588.099 1186.862 587.118 1187.659 585.826 Z M 1238.577 566.661 L 1236.759 566.661 C 1236.296 565.374 1235.499 564.071 1234.366 562.752 C 1233.234 561.433 1232.109 560.654 1230.993 560.416 C 1230.514 560.304 1229.848 560.237 1228.995 560.213 C 1228.142 560.189 1227.436 560.177 1226.878 560.177 L 1221.949 560.177 L 1221.949 573.265 L 1225.442 573.265 C 1226.319 573.265 1227.117 573.161 1227.835 572.954 C 1228.552 572.746 1229.206 572.348 1229.797 571.757 C 1230.163 571.39 1230.534 570.744 1230.909 569.819 C 1231.284 568.894 1231.527 568.089 1231.639 567.403 L 1233.457 567.403 L 1233.457 581.567 L 1231.639 581.567 C 1231.543 580.897 1231.3 580.056 1230.909 579.043 C 1230.518 578.03 1230.147 577.332 1229.797 576.949 C 1229.27 576.375 1228.648 575.98 1227.93 575.765 C 1227.213 575.55 1226.383 575.442 1225.442 575.442 L 1221.949 575.442 L 1221.949 585.228 C 1221.949 586.248 1222.025 587.058 1222.176 587.656 C 1222.328 588.254 1222.611 588.713 1223.026 589.032 C 1223.424 589.335 1223.971 589.534 1224.664 589.63 C 1225.358 589.726 1226.303 589.773 1227.5 589.773 C 1228.058 589.773 1228.728 589.765 1229.509 589.75 C 1230.291 589.734 1230.977 589.686 1231.567 589.606 C 1232.237 589.526 1232.863 589.407 1233.445 589.247 C 1234.027 589.088 1234.462 588.856 1234.749 588.553 C 1235.515 587.772 1236.376 586.579 1237.333 584.976 C 1238.29 583.373 1238.92 582.173 1239.223 581.376 L 1240.97 581.376 L 1240.324 591.951 L 1208.479 591.951 L 1208.479 590.085 C 1208.925 590.053 1209.531 589.989 1210.297 589.893 C 1211.063 589.797 1211.605 589.686 1211.924 589.558 C 1212.53 589.303 1212.937 588.98 1213.144 588.589 C 1213.352 588.198 1213.455 587.7 1213.455 587.094 L 1213.455 563.144 C 1213.455 562.57 1213.367 562.095 1213.192 561.721 C 1213.017 561.346 1212.594 561.007 1211.924 560.704 C 1211.509 560.512 1210.927 560.337 1210.177 560.177 C 1209.428 560.018 1208.861 559.914 1208.479 559.866 L 1208.479 558 L 1238.577 558 Z M 1281.911 581.065 L 1281.241 591.951 L 1249.97 591.951 L 1249.97 590.085 C 1250.528 590.037 1251.182 589.961 1251.932 589.857 C 1252.681 589.754 1253.176 589.654 1253.415 589.558 C 1253.989 589.335 1254.388 589.024 1254.611 588.625 C 1254.835 588.226 1254.946 587.716 1254.946 587.094 L 1254.946 563.144 C 1254.946 562.57 1254.859 562.095 1254.683 561.721 C 1254.508 561.346 1254.085 561.007 1253.415 560.704 C 1252.921 560.48 1252.327 560.301 1251.633 560.165 C 1250.939 560.03 1250.385 559.93 1249.97 559.866 L 1249.97 558 L 1268.608 558 L 1268.608 559.866 C 1268.098 559.914 1267.495 559.982 1266.802 560.07 C 1266.108 560.157 1265.506 560.281 1264.995 560.44 C 1264.373 560.648 1263.958 560.971 1263.751 561.409 C 1263.544 561.848 1263.44 562.347 1263.44 562.905 L 1263.44 585.228 C 1263.44 586.28 1263.512 587.11 1263.655 587.716 C 1263.799 588.322 1264.078 588.769 1264.493 589.056 C 1264.907 589.359 1265.486 589.554 1266.227 589.642 C 1266.969 589.73 1267.994 589.773 1269.302 589.773 C 1270.578 589.773 1271.818 589.698 1273.022 589.546 C 1274.227 589.395 1275.092 589.064 1275.618 588.553 C 1276.432 587.74 1277.265 586.595 1278.119 585.12 C 1278.972 583.644 1279.654 582.293 1280.164 581.065 Z" fill="#F5F1E8" fill-rule="evenodd"/>
</svg>